<?xml version="1.0" encoding="UTF-8"?>
<svg width="18px" height="18px" viewBox="0 0 18 18" version="1.1" xmlns="http://www.w3.org/2000/svg" xmlns:xlink="http://www.w3.org/1999/xlink">
    <!-- Generator: Sketch 58 (84663) - https://sketch.com -->
    <title>退出登录</title>
    <desc>Created with Sketch.</desc>
    <g id="页面-1" stroke="none" stroke-width="1" fill="none" fill-rule="evenodd" opacity="0.65">
        <g id="工作看板1" transform="translate(-1887.000000, -24.000000)">
            <g id="top" transform="translate(180.000000, 0.000000)">
                <g id="退出登录" transform="translate(1707.000000, 24.000000)">
                    <rect id="Rectangle-43-Copy-3" x="0" y="0" width="18" height="18"></rect>
                    <g id="login" fill="#000000" fill-rule="nonzero">
                        <path d="M7.78535156,10.9423828 C7.5375,11.1902344 7.5375,11.5892578 7.78359375,11.8353516 C7.90664062,11.9583984 8.07011719,12.0216797 8.23183594,12.0216797 C8.39355469,12.0216797 8.55703125,11.9601562 8.68007813,11.8371094 L11.0671875,9.45 C11.3150391,9.20214844 11.3150391,8.79785156 11.0671875,8.55 L8.68007813,6.16464844 C8.43222656,5.91679687 8.03144531,5.91679687 7.78535156,6.16464844 C7.5375,6.4125 7.5375,6.81328125 7.78535156,7.059375 L9.09140625,8.36542969 L0.634570313,8.3671875 C0.284765625,8.3671875 0.0017578125,8.65019531 0.0017578125,9 C0.0017578125,9.34980469 0.286523438,9.63457031 0.634570313,9.63457031 L9.09140625,9.63632812 L7.78535156,10.9423828 Z" id="Shape"></path>
                        <path d="M17.2916016,5.4984375 C16.8380859,4.42617187 16.1894531,3.46289062 15.3632813,2.63671875 C14.5371094,1.81054687 13.5755859,1.16015625 12.5033203,0.706640625 C11.3941406,0.237304687 10.2146484,0 9,0 C7.57089844,0 6.20332031,0.325195312 4.9359375,0.966796875 C3.72832031,1.58027344 2.65605469,2.47324219 1.83691406,3.55429687 C1.62421875,3.83203125 1.67871094,4.22929687 1.95644531,4.44023437 C2.23417969,4.65292969 2.63144531,4.5984375 2.84238281,4.32070312 C3.54902344,3.39257812 4.47011719,2.62265625 5.50898437,2.09707031 C6.59707031,1.54511719 7.77128906,1.265625 9,1.265625 C10.0441406,1.265625 11.0566406,1.46953125 12.009375,1.87207031 C12.9304688,2.26054687 13.7583984,2.81953125 14.4685547,3.5296875 C15.1787109,4.23984375 15.7359375,5.06777344 16.1261719,5.98886719 C16.5304688,6.94335937 16.734375,7.95585937 16.734375,9 C16.734375,10.0441406 16.5304688,11.0566406 16.1279297,12.009375 C15.7394531,12.9304687 15.1804688,13.7583984 14.4703125,14.4685547 C13.7601563,15.1787109 12.9322266,15.7359375 12.0111328,16.1261719 C11.0566406,16.5322266 10.0441406,16.734375 9,16.734375 C7.77128906,16.734375 6.59707031,16.4548828 5.50546875,15.9011719 C4.46835937,15.3755859 3.54550781,14.6056641 2.83886719,13.6775391 C2.62792969,13.3998047 2.23066406,13.3470703 1.95292969,13.5580078 C1.67519531,13.7689453 1.62246094,14.1662109 1.83339844,14.4439453 C2.65605469,15.525 3.72832031,16.4197266 4.9359375,17.0314453 C6.20332031,17.6730469 7.57089844,17.9982422 9,17.9982422 C10.2146484,17.9982422 11.3941406,17.7609375 12.5033203,17.2916016 C13.5738281,16.8398437 14.5371094,16.1894531 15.3632813,15.3632812 C16.1894531,14.5371094 16.8398438,13.5755859 17.2933594,12.5033203 C17.7626953,11.3941406 18,10.2146484 18,9 C18,7.78535156 17.7626953,6.60585937 17.2916016,5.4984375 Z" id="Shape"></path>
                    </g>
                </g>
            </g>
        </g>
    </g>
</svg>