<?xml version="1.0" encoding="UTF-8"?>
<svg width="10px" height="10px" viewBox="0 0 10 10" version="1.1" xmlns="http://www.w3.org/2000/svg" xmlns:xlink="http://www.w3.org/1999/xlink">
    <!-- Generator: Sketch 58 (84663) - https://sketch.com -->
    <title>Button关闭</title>
    <desc>Created with Sketch.</desc>
    <g id="页面-1" stroke="none" stroke-width="1" fill="none" fill-rule="evenodd" opacity="0.45">
        <g id="工作看板2" transform="translate(-1853.000000, -77.000000)">
            <g id="top" transform="translate(180.000000, 0.000000)">
                <g id="当前用户-鼠标悬停" transform="translate(1452.000000, 0.000000)">
                    <g id="当前用户-弹窗" transform="translate(0.000000, 68.000000)">
                        <g id="Button关闭" transform="translate(218.000000, 6.000000)">
                            <rect id="Rectangle-36-Copy" x="0" y="0" width="16" height="16"></rect>
                            <g id="close" transform="translate(2.953125, 2.968750)" fill="#000000" fill-rule="nonzero">
                                <path d="M5.9171875,5.0296875 L9.8984375,1.0515625 C10.1390625,0.8109375 10.1390625,0.421875 9.8984375,0.1828125 C9.6578125,-0.0578125 9.26875,-0.0578125 9.0296875,0.1828125 L5.046875,4.159375 L1.0640625,0.18125 C0.8234375,-0.059375 0.434375,-0.059375 0.1953125,0.18125 C-0.0453125,0.421875 -0.0453125,0.8109375 0.1953125,1.05 L4.1765625,5.028125 L0.1953125,9.0078125 C-0.0453125,9.2484375 -0.0453125,9.6375 0.1953125,9.8765625 C0.315625,9.996875 0.4734375,10.05625 0.6296875,10.05625 C0.7875,10.05625 0.94375,9.996875 1.0640625,9.8765625 L5.046875,5.8984375 L9.0296875,9.878125 C9.15,9.9984375 9.30625,10.0578125 9.4640625,10.0578125 C9.621875,10.0578125 9.778125,9.9984375 9.8984375,9.878125 C10.1390625,9.6375 10.1390625,9.2484375 9.8984375,9.009375 L5.9171875,5.0296875 Z" id="Shape"></path>
                            </g>
                        </g>
                    </g>
                </g>
            </g>
        </g>
    </g>
</svg>