<?xml version="1.0" encoding="UTF-8"?>
<svg width="14px" height="15px" viewBox="0 0 14 15" version="1.1" xmlns="http://www.w3.org/2000/svg" xmlns:xlink="http://www.w3.org/1999/xlink">
    <!-- Generator: Sketch 58 (84663) - https://sketch.com -->
    <title>电话icon</title>
    <desc>Created with Sketch.</desc>
    <g id="页面-1" stroke="none" stroke-width="1" fill="none" fill-rule="evenodd" opacity="0.65">
        <g id="工作看板2" transform="translate(-1668.000000, -298.000000)">
            <g id="top" transform="translate(180.000000, 0.000000)">
                <g id="当前用户-鼠标悬停" transform="translate(1452.000000, 0.000000)">
                    <g id="当前用户-弹窗" transform="translate(0.000000, 68.000000)">
                        <g id="个人资料" transform="translate(35.000000, 196.000000)">
                            <g id="电话icon" transform="translate(0.000000, 33.000000)">
                                <rect id="Rectangle-48-Copy-36" x="0" y="0" width="16" height="16"></rect>
                                <g id="phone" transform="translate(0.984375, 0.984375)" fill="#000000" fill-rule="nonzero">
                                    <path d="M13.259375,1.5796875 C12.7828125,0.84375 12.125,0 11.2625,0 C11.0109375,0 10.6328125,0.0765625 10.265625,0.44375 C9.921875,0.7859375 9.434375,1.3140625 9.0640625,1.8859375 C8.6,2.6015625 8.4515625,3.1921875 8.609375,3.690625 C8.7109375,4.0171875 9.025,4.346875 9.5734375,4.9 L9.5796875,4.90625 C9.8109375,5.140625 10.0734375,5.40625 10.1734375,5.546875 C10.2671875,5.6796875 10.15,6.0390625 9.8671875,6.4859375 C9.4984375,7.0703125 8.8828125,7.7453125 8.3296875,8.328125 C7.8578125,8.7765625 7.3046875,9.2859375 6.7859375,9.6625 C6.1359375,10.1328125 5.8046875,10.203125 5.6640625,10.203125 C5.59375,10.203125 5.5625,10.1828125 5.546875,10.171875 C5.409375,10.0734375 5.15625,9.825 4.9,9.571875 C4.328125,9.009375 4.015625,8.709375 3.690625,8.609375 C3.5625,8.5703125 3.4296875,8.55 3.2921875,8.55 C2.8453125,8.55 2.3359375,8.7515625 1.734375,9.1671875 C1.225,9.51875 0.753125,9.9578125 0.4484375,10.2640625 C0.0296875,10.6828125 -0.0203125,11.1125 0.009375,11.4 C0.09375,12.203125 0.89375,12.815625 1.5796875,13.2609375 C2.384375,13.7828125 3.309375,14.046875 4.328125,14.046875 C6.440625,14.046875 8.8171875,12.8796875 10.85,10.846875 C11.5578125,10.1390625 12.1671875,9.38125 12.6640625,8.5953125 C13.1640625,7.8015625 13.534375,6.9953125 13.765625,6.2015625 C14.26875,4.465625 14.09375,2.86875 13.259375,1.5796875 Z M12.7,5.890625 C12.4984375,6.584375 12.1703125,7.2953125 11.725,8.0015625 C11.275,8.7171875 10.715625,9.4109375 10.065625,10.0609375 C9.6046875,10.521875 9.1171875,10.940625 8.61875,11.30625 C8.13125,11.6625 7.63125,11.9671875 7.134375,12.2109375 C6.6484375,12.45 6.159375,12.6328125 5.68125,12.75625 C5.2140625,12.8765625 4.759375,12.9375 4.3265625,12.9375 C3.525,12.9375 2.803125,12.7328125 2.18125,12.3296875 C1.9265625,12.1640625 1.6046875,11.94375 1.3765625,11.70625 C1.1609375,11.484375 1.1171875,11.3453125 1.1109375,11.284375 C1.1078125,11.253125 1.1,11.178125 1.2296875,11.05 C1.6234375,10.65625 2.015625,10.3203125 2.3640625,10.08125 C2.89375,9.715625 3.171875,9.6609375 3.290625,9.6609375 C3.3171875,9.6609375 3.3359375,9.6640625 3.35,9.6671875 C3.36875,9.678125 3.4265625,9.7140625 3.5375,9.809375 C3.6859375,9.9375 3.8640625,10.1109375 4.11875,10.3609375 C4.4796875,10.71875 4.7109375,10.9390625 4.8984375,11.075 L4.9203125,11.090625 C5.1390625,11.2390625 5.390625,11.315625 5.665625,11.315625 C5.91875,11.315625 6.184375,11.2546875 6.478125,11.1296875 C6.7703125,11.0046875 7.084375,10.81875 7.4375,10.5640625 C8.00625,10.1515625 8.5953125,9.609375 9.0953125,9.134375 L9.1109375,9.1203125 L9.1328125,9.096875 C9.7515625,8.4453125 10.3828125,7.75 10.80625,7.0828125 C10.9734375,6.8203125 11.1015625,6.5703125 11.1875,6.3375 C11.2609375,6.1375 11.303125,5.9515625 11.3140625,5.76875 C11.3390625,5.365625 11.2015625,5.078125 11.08125,4.90625 C10.94375,4.7125 10.721875,4.4828125 10.3984375,4.15625 L10.3640625,4.1203125 C10.115625,3.8703125 9.9359375,3.6859375 9.8109375,3.540625 C9.7171875,3.43125 9.6796875,3.3734375 9.6671875,3.35 C9.6359375,3.2265625 9.7078125,2.9390625 9.9984375,2.490625 C10.3109375,2.0078125 10.74375,1.5390625 11.05,1.23125 L11.0515625,1.2296875 C11.13125,1.15 11.20625,1.109375 11.2671875,1.109375 C11.365625,1.109375 11.5140625,1.19375 11.6734375,1.3421875 C11.921875,1.571875 12.1578125,1.9109375 12.334375,2.18125 C12.6546875,2.6765625 12.8515625,3.2359375 12.9171875,3.846875 C12.98125,4.4828125 12.909375,5.1703125 12.7,5.890625 Z" id="Shape"></path>
                                </g>
                            </g>
                        </g>
                    </g>
                </g>
            </g>
        </g>
    </g>
</svg>