<?xml version="1.0" encoding="UTF-8"?>
<svg width="16px" height="13px" viewBox="0 0 16 13" version="1.1" xmlns="http://www.w3.org/2000/svg" xmlns:xlink="http://www.w3.org/1999/xlink">
    <!-- Generator: Sketch 58 (84663) - https://sketch.com -->
    <title>邮箱icon</title>
    <desc>Created with Sketch.</desc>
    <g id="页面-1" stroke="none" stroke-width="1" fill="none" fill-rule="evenodd" opacity="0.65">
        <g id="工作看板2" transform="translate(-1667.000000, -269.000000)">
            <g id="top" transform="translate(180.000000, 0.000000)">
                <g id="当前用户-鼠标悬停" transform="translate(1452.000000, 0.000000)">
                    <g id="当前用户-弹窗" transform="translate(0.000000, 68.000000)">
                        <g id="个人资料" transform="translate(35.000000, 196.000000)">
                            <g id="邮箱icon" transform="translate(0.000000, 3.000000)">
                                <rect id="Rectangle-48-Copy-9" x="0" y="0" width="16" height="16"></rect>
                                <g id="mail" transform="translate(0.984375, 1.984375)" fill="#000000" fill-rule="nonzero">
                                    <path d="M12.9046875,0.0140625 L1.1375,0.0140625 C0.515625,0.0140625 0.0125,0.5171875 0.0125,1.1390625 L0.0125,10.91875 C0.0125,11.540625 0.515625,12.04375 1.1375,12.04375 L12.9046875,12.04375 C13.5265625,12.04375 14.0296875,11.540625 14.0296875,10.91875 L14.0296875,1.1390625 C14.0296875,0.51875 13.525,0.0140625 12.9046875,0.0140625 Z M11.6984375,1.1390625 L7.509375,4.640625 L7.484375,4.6609375 L7.4625,4.684375 C7.35625,4.796875 7.2125,4.8578125 7.0578125,4.859375 C7.05625,4.859375 7.05625,4.859375 7.0546875,4.859375 C6.9015625,4.859375 6.7578125,4.7984375 6.6515625,4.6890625 L6.6296875,4.6671875 L2.3515625,1.1390625 L11.6984375,1.1390625 Z M12.9046875,10.91875 L1.1375,10.91875 C1.1375,10.91875 1.1375,10.91875 1.1375,10.91875 L1.1375,1.596875 L5.86875,5.4953125 C6.1875,5.8109375 6.60625,5.984375 7.05625,5.984375 C7.059375,5.984375 7.0609375,5.984375 7.0640625,5.984375 C7.515625,5.9828125 7.9375,5.80625 8.2546875,5.4859375 L12.90625,1.5984375 L12.90625,10.91875 C12.9046875,10.91875 12.9046875,10.91875 12.9046875,10.91875 Z" id="Shape"></path>
                                </g>
                            </g>
                        </g>
                    </g>
                </g>
            </g>
        </g>
    </g>
</svg>