<?xml version="1.0" encoding="UTF-8"?>
<svg width="14px" height="14px" viewBox="0 0 14 14" version="1.1" xmlns="http://www.w3.org/2000/svg" xmlns:xlink="http://www.w3.org/1999/xlink">
    <!-- Generator: Sketch 58 (84663) - https://sketch.com -->
    <title>生日icon</title>
    <desc>Created with Sketch.</desc>
    <g id="页面-1" stroke="none" stroke-width="1" fill="none" fill-rule="evenodd" opacity="0.65">
        <g id="工作看板2" transform="translate(-1668.000000, -328.000000)">
            <g id="top" transform="translate(180.000000, 0.000000)">
                <g id="当前用户-鼠标悬停" transform="translate(1452.000000, 0.000000)">
                    <g id="当前用户-弹窗" transform="translate(0.000000, 68.000000)">
                        <g id="个人资料" transform="translate(35.000000, 196.000000)">
                            <g id="生日icon" transform="translate(0.000000, 63.000000)">
                                <rect id="Rectangle-44-Copy-4" x="0" y="0" width="16" height="16"></rect>
                                <g id="gift" transform="translate(1.000000, 1.000000)" fill="#000000" fill-rule="nonzero">
                                    <path d="M12.875,4 L9,4 C10.1046875,4 11,3.1046875 11,2 C11,0.8953125 10.1046875,0 9,0 C7.8953125,0 7,0.8953125 7,2 C7,0.8953125 6.1046875,0 5,0 C3.8953125,0 3,0.8953125 3,2 C3,3.1046875 3.8953125,4 5,4 L1.125,4 C0.503125,4 0,4.503125 0,5.125 L0,6.875 C0,7.496875 0.503125,8 1.125,8 L1,8 L1,12.875 C1,13.496875 1.503125,14 2.125,14 L11.875,14 C12.496875,14 13,13.496875 13,12.875 L13,8 L12.875,8 C13.496875,8 14,7.496875 14,6.875 L14,5.125 C14,4.503125 13.496875,4 12.875,4 Z M5,2.875 C4.5171875,2.875 4.125,2.4828125 4.125,2 C4.125,1.5171875 4.5171875,1.125 5,1.125 C5.4828125,1.125 5.875,1.5171875 5.875,2 L5.875,2.875 L5,2.875 Z M6.4375,12.875 L2.125,12.875 L2.125,8 L6.4375,8 L6.4375,12.875 Z M6.4375,6.875 L1.125,6.875 L1.125,5.125 L6.4375,5.125 L6.4375,6.875 Z M8.125,2 C8.125,1.5171875 8.5171875,1.125 9,1.125 C9.4828125,1.125 9.875,1.5171875 9.875,2 C9.875,2.4828125 9.4828125,2.875 9,2.875 L8.125,2.875 L8.125,2 Z M11.875,12.875 L7.5625,12.875 L7.5625,8 L11.875,8 L11.875,12.875 Z M12.875,6.875 L7.5625,6.875 L7.5625,5.125 L12.875,5.125 L12.875,6.875 Z" id="Shape"></path>
                                </g>
                            </g>
                        </g>
                    </g>
                </g>
            </g>
        </g>
    </g>
</svg>