<?xml version="1.0" encoding="UTF-8"?>
<svg width="12px" height="14px" viewBox="0 0 12 14" version="1.1" xmlns="http://www.w3.org/2000/svg" xmlns:xlink="http://www.w3.org/1999/xlink">
    <!-- Generator: Sketch 58 (84663) - https://sketch.com -->
    <title>icon Safety</title>
    <desc>Created with Sketch.</desc>
    <g id="页面-1" stroke="none" stroke-width="1" fill="none" fill-rule="evenodd">
        <g id="登录1" transform="translate(-371.000000, -539.000000)">
            <g id="登录" transform="translate(355.000000, 308.000000)">
                <g id="Group-1" transform="translate(2.000000, 90.000000)">
                    <g id="3" transform="translate(0.000000, 128.000000)">
                        <g id="icon-Safety" transform="translate(12.000000, 12.000000)">
                            <rect id="Rectangle-45-Copy" x="0" y="0" width="16" height="16"></rect>
                            <g id="Safety" transform="translate(2.000000, 1.000000)" fill="#000000" fill-opacity="0.25" fill-rule="nonzero">
                                <path d="M6,0 L0,2 L0,8 C0,11.3140625 2.6859375,14 6,14 C9.3140625,14 12,11.3140625 12,8 L12,2 L6,0 Z M10.875,8 C10.875,10.6921875 8.6921875,12.875 6,12.875 C3.3078125,12.875 1.125,10.6921875 1.125,8 L1.125,2.84375 L6,1.125 L10.875,2.84375 L10.875,8 Z M3.9125,6.4234375 C3.6921875,6.203125 3.3359375,6.203125 3.1171875,6.4234375 C2.896875,6.64375 2.896875,7 3.1171875,7.21875 L5.1390625,9.240625 L5.171875,9.2734375 C5.3796875,9.48125 5.715625,9.48125 5.9234375,9.2734375 L9.415625,5.78125 C9.6234375,5.5734375 9.6234375,5.2375 9.415625,5.0296875 L9.371875,4.9859375 C9.1640625,4.778125 8.828125,4.778125 8.6203125,4.9859375 L5.546875,8.0578125 L3.9125,6.4234375 Z" id="Shape"></path>
                            </g>
                        </g>
                    </g>
                </g>
            </g>
        </g>
    </g>
</svg>