<?xml version="1.0" encoding="UTF-8"?>
<svg width="12px" height="14px" viewBox="0 0 12 14" version="1.1" xmlns="http://www.w3.org/2000/svg" xmlns:xlink="http://www.w3.org/1999/xlink">
    <!-- Generator: Sketch 58 (84663) - https://sketch.com -->
    <title>icon user</title>
    <desc>Created with Sketch.</desc>
    <g id="页面-1" stroke="none" stroke-width="1" fill="none" fill-rule="evenodd">
        <g id="登录1" transform="translate(-371.000000, -411.000000)">
            <g id="登录" transform="translate(355.000000, 308.000000)">
                <g id="Group-1" transform="translate(2.000000, 90.000000)">
                    <g id="1">
                        <g id="icon-user" transform="translate(12.000000, 12.000000)">
                            <rect id="Rectangle-10" x="0" y="0" width="16" height="16"></rect>
                            <g id="user-(1)" transform="translate(2.781250, 1.015625)" fill="#000000" fill-opacity="0.25" fill-rule="nonzero">
                                <path d="M10.021875,11.390625 C9.759375,10.7703125 9.3828125,10.2125 8.9046875,9.734375 C8.4265625,9.25625 7.86875,8.8796875 7.2484375,8.6171875 C7.0375,8.528125 6.8203125,8.453125 6.6015625,8.3921875 C7.2203125,8.1828125 7.7875,7.8328125 8.2625,7.3578125 C9.075,6.5453125 9.5234375,5.4640625 9.5234375,4.315625 C9.5234375,3.1671875 9.0765625,2.0859375 8.2625,1.2734375 C7.45,0.4609375 6.36875,0.0125 5.2203125,0.0125 C4.071875,0.0125 2.990625,0.459375 2.178125,1.2734375 C1.365625,2.0859375 0.9171875,3.1671875 0.9171875,4.315625 C0.9171875,5.4640625 1.3640625,6.5453125 2.178125,7.3578125 C2.653125,7.8328125 3.2203125,8.1828125 3.8390625,8.3921875 C3.6203125,8.453125 3.403125,8.5265625 3.1921875,8.6171875 C2.571875,8.8796875 2.0140625,9.25625 1.5359375,9.734375 C1.0578125,10.2125 0.68125,10.7703125 0.41875,11.390625 C0.146875,12.034375 0.009375,12.715625 0.009375,13.4203125 C0.009375,13.73125 0.2609375,13.9828125 0.571875,13.9828125 C0.8828125,13.9828125 1.134375,13.73125 1.134375,13.4203125 C1.134375,12.328125 1.559375,11.3015625 2.33125,10.5296875 C3.103125,9.7578125 4.1296875,9.3328125 5.221875,9.3328125 C6.3140625,9.3328125 7.340625,9.7578125 8.1125,10.5296875 C8.884375,11.3015625 9.309375,12.328125 9.309375,13.4203125 C9.309375,13.73125 9.5609375,13.9828125 9.871875,13.9828125 C10.1828125,13.9828125 10.434375,13.73125 10.434375,13.4203125 C10.43125,12.715625 10.29375,12.034375 10.021875,11.390625 Z M2.040625,4.315625 C2.040625,2.5625 3.4671875,1.1375 5.21875,1.1375 C6.9703125,1.1375 8.396875,2.5625 8.396875,4.315625 C8.396875,6.06875 6.971875,7.49375 5.21875,7.49375 C3.465625,7.49375 2.040625,6.0671875 2.040625,4.315625 Z" id="Shape"></path>
                            </g>
                        </g>
                    </g>
                </g>
            </g>
        </g>
    </g>
</svg>