<?xml version="1.0" encoding="UTF-8"?>
<svg width="12px" height="15px" viewBox="0 0 12 15" version="1.1" xmlns="http://www.w3.org/2000/svg" xmlns:xlink="http://www.w3.org/1999/xlink">
    <!-- Generator: Sketch 58 (84663) - https://sketch.com -->
    <title>icon lock</title>
    <desc>Created with Sketch.</desc>
    <g id="页面-1" stroke="none" stroke-width="1" fill="none" fill-rule="evenodd">
        <g id="登录1" transform="translate(-371.000000, -475.000000)">
            <g id="登录" transform="translate(355.000000, 308.000000)">
                <g id="Group-1" transform="translate(2.000000, 90.000000)">
                    <g id="2" transform="translate(0.000000, 64.000000)">
                        <g id="icon-lock" transform="translate(12.000000, 12.000000)">
                            <rect id="Rectangle-11" x="0" y="0" width="16" height="16"></rect>
                            <g id="lock" transform="translate(2.703125, 0.984375)" fill="#000000" fill-opacity="0.25" fill-rule="nonzero">
                                <path d="M10.1734375,3.4234375 C9.903125,2.75625 9.5203125,2.159375 9.0375,1.6515625 C8.5546875,1.1390625 7.9890625,0.734375 7.35625,0.45 C6.7015625,0.1578125 6.009375,0.009375 5.296875,0.009375 C4.584375,0.009375 3.890625,0.1578125 3.2359375,0.4515625 C2.603125,0.734375 2.0390625,1.1390625 1.5546875,1.6515625 C1.0671875,2.165625 0.684375,2.7625 0.41875,3.4234375 C0.1421875,4.1078125 0.0015625,4.8359375 0.0015625,5.5890625 L0.0015625,12.9359375 C0.0015625,13.5359375 0.465625,14.0234375 1.0375,14.0234375 L9.5515625,14.0234375 C10.1234375,14.0234375 10.587551,13.5359375 10.584375,12.9359375 L10.584375,6.4515625 L10.587551,6.153125 L10.587551,5.5890625 C10.590625,4.8390625 10.45,4.1109375 10.1734375,3.4234375 Z M3.6515625,1.434375 L3.6546875,1.434375 L3.675,1.4265625 C4.1859375,1.19375 4.73125,1.0765625 5.2953125,1.0765625 C5.85625,1.0765625 6.403125,1.1953125 6.9171875,1.4234375 C7.415625,1.6484375 7.86875,1.971875 8.2609375,2.3828125 C8.65625,2.8 8.9640625,3.2828125 9.18125,3.8203125 C9.4078125,4.3796875 9.521875,4.9734375 9.521875,5.5890625 L9.521875,6.0515625 L1.06875,6.0515625 L1.06875,6.0515625 L1.06875,5.5875 C1.06875,4.978125 1.1828125,4.384375 1.409375,3.8203125 C1.628125,3.278125 1.9390625,2.7953125 2.3296875,2.384375 C2.71875,1.975 3.1609375,1.6546875 3.6515625,1.434375 Z M9.5265625,7.115625 L9.5265625,12.934375 C9.5265625,12.94375 9.525,12.9515625 9.5234375,12.95625 L1.071875,12.95625 C1.0703125,12.9515625 1.06875,12.94375 1.06875,12.934375 L1.06875,7.115625 L9.5265625,7.115625 Z" id="Shape"></path>
                                <path d="M4.803125,9.515625 L4.803125,10.9140625 C4.803125,11.1875 5.025,11.409375 5.2984375,11.409375 C5.571875,11.409375 5.79375,11.1875 5.79375,10.9140625 L5.79375,9.5125 C6.05625,9.34375 6.2140625,9.059375 6.2140625,8.74375 C6.2140625,8.2375 5.803125,7.8265625 5.296875,7.8265625 C4.790625,7.8265625 4.3796875,8.2375 4.3796875,8.74375 C4.38125,9.0546875 4.5421875,9.3484375 4.803125,9.515625 Z" id="Shape"></path>
                            </g>
                        </g>
                    </g>
                </g>
            </g>
        </g>
    </g>
</svg>