<?xml version="1.0" encoding="UTF-8"?>
<svg width="18px" height="18px" viewBox="0 0 18 18" version="1.1" xmlns="http://www.w3.org/2000/svg" xmlns:xlink="http://www.w3.org/1999/xlink">
    <!-- Generator: Sketch 58 (84663) - https://sketch.com -->
    <title>icon-错误</title>
    <desc>Created with Sketch.</desc>
    <g id="页面-1" stroke="none" stroke-width="1" fill="none" fill-rule="evenodd">
        <g id="登录2" transform="translate(-370.000000, -409.000000)">
            <g id="登录" transform="translate(355.000000, 308.000000)">
                <g id="错误" transform="translate(2.000000, 90.000000)">
                    <g id="icon-错误" transform="translate(12.000000, 10.000000)">
                        <rect id="Rectangle-10" fill-opacity="0" fill="#FFFFFF" x="0" y="0" width="20" height="20"></rect>
                        <path d="M10,1.66666667 C5.39713542,1.66666667 1.66666667,5.39713542 1.66666667,10 C1.66666667,14.6028646 5.39713542,18.3333333 10,18.3333333 C14.6028646,18.3333333 18.3333333,14.6028646 18.3333333,10 C18.3333333,5.39713542 14.6028646,1.66666667 10,1.66666667 Z M13.3414714,12.5211589 C13.5693359,12.750651 13.5693359,13.1217448 13.3398438,13.3496094 C13.2259115,13.4635417 13.0761719,13.5205078 12.9264323,13.5205078 C12.7766927,13.5205078 12.6253255,13.4635417 12.5113932,13.3479818 L10,10.8300781 L7.48860677,13.3479818 C7.37467448,13.4635417 7.22330729,13.5205078 7.07356771,13.5205078 C6.92382812,13.5205078 6.77408854,13.4635417 6.66015625,13.3496094 C6.43066406,13.1217448 6.43066406,12.750651 6.65852865,12.5211589 L9.17317708,10 L6.65852865,7.47884115 C6.43066406,7.24934896 6.43066406,6.87825521 6.66015625,6.65039063 C6.88964844,6.42252604 7.26074219,6.42252604 7.48860677,6.65201823 L10,9.16992188 L12.5113932,6.65039062 C12.7392578,6.42089844 13.1103516,6.42089844 13.3398438,6.64876302 C13.5693359,6.8766276 13.5693359,7.24772135 13.3414714,7.47721354 L10.8268229,10 L13.3414714,12.5211589 Z" id="Shape" fill="#FF5651" fill-rule="nonzero"></path>
                    </g>
                </g>
            </g>
        </g>
    </g>
</svg>