<?xml version="1.0" encoding="UTF-8"?>
<svg width="12px" height="12px" viewBox="0 0 12 12" version="1.1" xmlns="http://www.w3.org/2000/svg" xmlns:xlink="http://www.w3.org/1999/xlink">
    <!-- Generator: Sketch 58 (84663) - https://sketch.com -->
    <title>添加按钮</title>
    <desc>Created with Sketch.</desc>
    <g id="页面-1" stroke="none" stroke-width="1" fill="none" fill-rule="evenodd">
        <g id="工作日志" transform="translate(-982.000000, -745.000000)">
            <g id="1" transform="translate(204.000000, 75.000000)">
                <g id="填写日志" transform="translate(638.000000, 123.000000)">
                    <g id="添加按钮" transform="translate(5.000000, 537.000000)">
                        <g id="Group" transform="translate(134.000000, 5.000000)">
                            <g id="添加按钮" transform="translate(0.000000, 4.000000)">
                                <rect id="Rectangle-36" x="0" y="0" width="14" height="14"></rect>
                                <g id="plus" transform="translate(1.708984, 1.763672)" fill="#000000" fill-opacity="0.65" fill-rule="nonzero">
                                    <path d="M10.0966797,4.74414062 L5.7421875,4.74414062 L5.7421875,0.499023438 C5.7421875,0.226953125 5.52207031,0.0068359375 5.25,0.0068359375 L5.25,0.0068359375 C4.97792969,0.0068359375 4.7578125,0.226953125 4.7578125,0.499023438 L4.7578125,4.74414062 L0.499023438,4.74414062 C0.226953125,4.74414062 0.0068359375,4.96425781 0.0068359375,5.23632812 L0.0068359375,5.23632812 C0.0068359375,5.50839844 0.226953125,5.72851562 0.499023438,5.72851562 L4.7578125,5.72851562 L4.7578125,9.98730469 C4.7578125,10.259375 4.97792969,10.4794922 5.25,10.4794922 L5.25,10.4794922 C5.52207031,10.4794922 5.7421875,10.259375 5.7421875,9.98730469 L5.7421875,5.72851562 L10.0966797,5.72851562 C10.36875,5.72851562 10.5888672,5.50839844 10.5888672,5.23632812 L10.5888672,5.23632812 C10.5888672,4.96425781 10.36875,4.74414062 10.0966797,4.74414062 Z" id="Shape"></path>
                                </g>
                            </g>
                        </g>
                    </g>
                </g>
            </g>
        </g>
    </g>
</svg>