<?xml version="1.0" encoding="UTF-8"?>
<svg width="14px" height="18px" viewBox="0 0 14 18" version="1.1" xmlns="http://www.w3.org/2000/svg" xmlns:xlink="http://www.w3.org/1999/xlink">
    <!-- Generator: Sketch 58 (84663) - https://sketch.com -->
    <title>icon-项目管理</title>
    <desc>Created with Sketch.</desc>
    <g id="页面-1" stroke="none" stroke-width="1" fill="none" fill-rule="evenodd" opacity="0.65">
        <g id="工作看板1" transform="translate(-22.000000, -234.000000)">
            <g id="leftbar">
                <g id="项目管理" transform="translate(0.000000, 212.400000)">
                    <g id="icon-项目管理" transform="translate(20.000000, 21.600000)">
                        <rect id="Rectangle-45-Copy-17" x="0" y="0" width="18" height="18"></rect>
                        <g id="database" transform="translate(2.250000, 0.000000)" fill="#FFFFFF" fill-rule="nonzero">
                            <path d="M12.234375,0 L1.265625,0 C0.566015625,0 0,0.566015625 0,1.265625 L0,16.734375 C0,17.4339844 0.566015625,18 1.265625,18 L12.234375,18 C12.9339844,18 13.5,17.4339844 13.5,16.734375 L13.5,1.265625 C13.5,0.566015625 12.9339844,0 12.234375,0 Z M12.234375,16.5761719 L1.265625,16.5761719 L1.265625,12.2871094 C1.265625,12.2958984 1.27265625,12.3046875 1.28320312,12.3046875 L12.2167969,12.3046875 C12.2255859,12.3046875 12.234375,12.2976563 12.234375,12.2871094 L12.234375,16.5761719 Z M12.234375,11.0566406 C12.234375,11.0478516 12.2273437,11.0390625 12.2167969,11.0390625 L1.28320312,11.0390625 C1.27441406,11.0390625 1.265625,11.0460938 1.265625,11.0566406 L1.265625,6.76757812 C1.265625,6.77636719 1.27265625,6.78515625 1.28320312,6.78515625 L12.2167969,6.78515625 C12.2255859,6.78515625 12.234375,6.778125 12.234375,6.76757812 L12.234375,11.0566406 Z M12.234375,5.53710938 C12.234375,5.52832031 12.2273437,5.51953125 12.2167969,5.51953125 L1.28320312,5.51953125 C1.27441406,5.51953125 1.265625,5.5265625 1.265625,5.53710938 L1.265625,1.265625 L12.234375,1.265625 L12.234375,5.53710938 Z M2.75976562,14.4316406 C2.75976562,14.7811333 3.04308543,15.0644531 3.39257812,15.0644531 C3.74207082,15.0644531 4.02539062,14.7811333 4.02539062,14.4316406 C4.02539062,14.0821479 3.74207082,13.7988281 3.39257812,13.7988281 C3.04308543,13.7988281 2.75976562,14.0821479 2.75976562,14.4316406 L2.75976562,14.4316406 Z M2.75976562,8.91210938 C2.75976562,9.26160207 3.04308543,9.54492188 3.39257812,9.54492188 C3.74207082,9.54492188 4.02539062,9.26160207 4.02539062,8.91210938 C4.02539062,8.56261668 3.74207082,8.27929688 3.39257812,8.27929688 C3.04308543,8.27929688 2.75976562,8.56261668 2.75976562,8.91210938 L2.75976562,8.91210938 Z M2.75976562,3.39257812 C2.75976562,3.74207082 3.04308543,4.02539062 3.39257812,4.02539062 C3.74207082,4.02539062 4.02539062,3.74207082 4.02539062,3.39257812 C4.02539062,3.04308543 3.74207082,2.75976562 3.39257812,2.75976562 C3.04308543,2.75976562 2.75976562,3.04308543 2.75976562,3.39257812 Z" id="Shape"></path>
                        </g>
                    </g>
                </g>
            </g>
        </g>
    </g>
</svg>