<?xml version="1.0" encoding="UTF-8"?>
<svg width="16px" height="14px" viewBox="0 0 16 14" version="1.1" xmlns="http://www.w3.org/2000/svg" xmlns:xlink="http://www.w3.org/1999/xlink">
    <!-- Generator: Sketch 58 (84663) - https://sketch.com -->
    <title>leftbar-展开</title>
    <desc>Created with Sketch.</desc>
    <g id="页面-1" stroke="none" stroke-width="1" fill="none" fill-rule="evenodd">
        <g id="工作看板1" transform="translate(-21.000000, -24.000000)">
            <g id="leftbar">
                <g id="leftbar-展开" transform="translate(29.000000, 31.000000) scale(-1, 1) translate(-29.000000, -31.000000) translate(20.000000, 22.000000)">
                    <rect id="Rectangle-9" x="0" y="0" width="18" height="18"></rect>
                    <path d="M16.03125,14.0625 C16.4972403,14.0625 16.875,14.4402597 16.875,14.90625 C16.875,15.3722403 16.4972403,15.75 16.03125,15.75 L1.96875,15.75 C1.50275974,15.75 1.125,15.3722403 1.125,14.90625 C1.125,14.4402597 1.50275974,14.0625 1.96875,14.0625 L16.03125,14.0625 Z M13.2969892,6.91639204 L13.3559998,6.94124987 L16.3786405,8.83040034 C16.4043944,8.84649648 16.4261443,8.86824639 16.4422404,8.89400021 C16.4890741,8.96893406 16.480217,9.06289047 16.4268432,9.12744923 L16.3786405,9.16959966 L13.3559998,11.0587501 C13.3242135,11.0786166 13.2874839,11.0891505 13.25,11.0891505 C13.1579525,11.0891505 13.0804286,11.0269678 13.0571442,10.9423184 L13.05,10.8891505 L13.05,7.11084953 C13.05,7.07336558 13.0605339,7.03663606 13.0804003,7.00484974 C13.127234,6.9299159 13.2155704,6.89670536 13.2969892,6.91639204 Z M10.40625,8.15625 C10.8722403,8.15625 11.25,8.53400974 11.25,9 C11.25,9.46599026 10.8722403,9.84375 10.40625,9.84375 L1.96875,9.84375 C1.50275974,9.84375 1.125,9.46599026 1.125,9 C1.125,8.53400974 1.50275974,8.15625 1.96875,8.15625 L10.40625,8.15625 Z M16.03125,2.25 C16.4972403,2.25 16.875,2.62775974 16.875,3.09375 C16.875,3.55974026 16.4972403,3.9375 16.03125,3.9375 L1.96875,3.9375 C1.50275974,3.9375 1.125,3.55974026 1.125,3.09375 C1.125,2.62775974 1.50275974,2.25 1.96875,2.25 L16.03125,2.25 Z" id="形状结合" fill="#FFFFFF"></path>
                </g>
            </g>
        </g>
    </g>
</svg>