<?xml version="1.0" encoding="UTF-8"?>
<svg width="14px" height="16px" viewBox="0 0 14 16" version="1.1" xmlns="http://www.w3.org/2000/svg" xmlns:xlink="http://www.w3.org/1999/xlink">
    <!-- Generator: Sketch 58 (84663) - https://sketch.com -->
    <title>icon-工作日志</title>
    <desc>Created with Sketch.</desc>
    <g id="页面-1" stroke="none" stroke-width="1" fill="none" fill-rule="evenodd" opacity="0.65">
        <g id="工作看板1" transform="translate(-22.000000, -355.000000)">
            <g id="leftbar">
                <g id="工作日志" transform="translate(0.000000, 332.400000)">
                    <g id="icon-工作日志" transform="translate(20.000000, 21.600000)">
                        <rect id="Rectangle-37-Copy-5" x="0" y="0" width="18" height="18"></rect>
                        <g id="book" transform="translate(2.302734, 1.107422)" fill="#FFFFFF" fill-rule="nonzero">
                            <path d="M12.1376953,0.0087890625 L7.56914063,0.0087890625 L6.30351563,0.0087890625 L4.1765625,0.0087890625 L2.9109375,0.0087890625 L1.27441406,0.0087890625 C0.574804688,0.0087890625 0.0087890625,0.574804688 0.0087890625,1.27441406 L0.0087890625,14.5125 C0.0087890625,15.2121094 0.574804688,15.778125 1.27441406,15.778125 L12.1394531,15.778125 C12.8390625,15.778125 13.4050781,15.2121094 13.4050781,14.5125 L13.4050781,1.27441406 C13.4033203,0.574804688 12.8355469,0.0087890625 12.1376953,0.0087890625 Z M6.30351563,1.27441406 L6.30351563,4.9640625 L6.15058594,4.81113281 L5.56523438,4.22578125 C5.39824219,4.05878906 5.12578125,4.05703125 4.95703125,4.22402344 L4.1765625,4.99570312 L4.1765625,1.27441406 L6.30351563,1.27441406 Z M2.9109375,1.27441406 L2.9109375,6.14882813 C2.9109375,6.49511719 3.19042969,6.77460938 3.53671875,6.77460938 L3.53671875,6.77460938 C3.94628906,6.77460938 4.34003906,6.61289063 4.63183594,6.32460938 L5.25585938,5.70585938 L5.86933594,6.31933594 C6.14882813,6.59882813 6.525,6.76230469 6.92050781,6.77460938 L6.94511719,6.77460938 C7.29140625,6.77460938 7.57089844,6.49511719 7.57089844,6.14882812 L7.57089844,1.27441406 L12.1394531,1.27441406 L12.1394531,12.2484375 L1.27617187,12.2484375 L1.27617187,1.27441406 L2.9109375,1.27441406 Z M1.27441406,14.5125 L1.27441406,13.5140625 L12.1376953,13.5140625 L12.1376953,14.5125 L1.27441406,14.5125 Z" id="Shape"></path>
                        </g>
                    </g>
                </g>
            </g>
        </g>
    </g>
</svg>