<?xml version="1.0" encoding="UTF-8"?>
<svg width="17px" height="17px" viewBox="0 0 17 17" version="1.1" xmlns="http://www.w3.org/2000/svg" xmlns:xlink="http://www.w3.org/1999/xlink">
    <!-- Generator: Sketch 58 (84663) - https://sketch.com -->
    <title>icon-人员管理</title>
    <desc>Created with Sketch.</desc>
    <g id="页面-1" stroke="none" stroke-width="1" fill="none" fill-rule="evenodd" opacity="0.65">
        <g id="工作看板1" transform="translate(-21.000000, -294.000000)">
            <g id="leftbar">
                <g id="人员管理" transform="translate(0.000000, 272.400000)">
                    <g id="icon-人员管理" transform="translate(20.000000, 20.600000)">
                        <rect id="Rectangle-37-Copy-26" x="0" y="0" width="18" height="18"></rect>
                        <g id="contacts" transform="translate(1.500000, 1.500000)" fill="#FFFFFF" fill-rule="nonzero">
                            <path d="M3.375,11.0390625 C3.375,10.6892578 3.09199219,10.40625 2.7421875,10.40625 L0.6328125,10.40625 C0.283007812,10.40625 0,10.6892578 0,11.0390625 C0,11.3888672 0.283007812,11.671875 0.6328125,11.671875 L2.7421875,11.671875 C3.09199219,11.671875 3.375,11.3888672 3.375,11.0390625 Z M0.6328125,5.37890625 L2.7421875,5.37890625 C3.09199219,5.37890625 3.375,5.09589844 3.375,4.74609375 C3.375,4.39628906 3.09199219,4.11328125 2.7421875,4.11328125 L0.6328125,4.11328125 C0.283007812,4.11328125 0,4.39628906 0,4.74609375 C0,5.09589844 0.283007812,5.37890625 0.6328125,5.37890625 Z" id="Shape"></path>
                            <path d="M14.484375,0 L2.390625,0 C1.69101562,0 1.125,0.566015625 1.125,1.265625 L1.125,2.25 C1.125,2.59980469 1.40800781,2.8828125 1.7578125,2.8828125 C2.10761719,2.8828125 2.390625,2.59980469 2.390625,2.25 L2.390625,1.265625 L14.484375,1.265625 L14.484375,14.484375 L2.390625,14.484375 L2.390625,13.5351562 L2.38886719,13.5351562 C2.38886719,13.5228516 2.390625,13.5123047 2.390625,13.5 C2.390625,13.1501953 2.10761719,12.8671875 1.7578125,12.8671875 C1.40800781,12.8671875 1.125,13.1501953 1.125,13.5 C1.125,13.5123047 1.125,13.5228516 1.12675781,13.5351562 L1.125,13.5351562 L1.125,14.484375 C1.125,15.1839844 1.69101562,15.75 2.390625,15.75 L14.484375,15.75 C15.1839844,15.75 15.75,15.1839844 15.75,14.484375 L15.75,1.265625 C15.75,0.566015625 15.1839844,0 14.484375,0 Z" id="Shape"></path>
                            <path d="M0.6328125,8.52539062 L2.7421875,8.52539062 C3.09199219,8.52539062 3.375,8.24238281 3.375,7.89257812 C3.375,7.54277344 3.09199219,7.25976562 2.7421875,7.25976562 L0.6328125,7.25976562 C0.283007812,7.25976562 0,7.54277344 0,7.89257812 C0,8.24238281 0.283007812,8.52539062 0.6328125,8.52539062 Z M8.99296875,9.140625 C7.40390625,9.140625 6.11015625,7.846875 6.11015625,6.2578125 C6.11015625,4.66875 7.40390625,3.375 8.99296875,3.375 C10.5820312,3.375 11.8757813,4.66875 11.8757813,6.2578125 C11.8757813,7.846875 10.5820312,9.140625 8.99296875,9.140625 Z M8.99296875,4.640625 C8.10175781,4.640625 7.37578125,5.36660156 7.37578125,6.2578125 C7.37578125,7.14902344 8.10175781,7.875 8.99296875,7.875 C9.88417969,7.875 10.6101563,7.14902344 10.6101563,6.2578125 C10.6101563,5.36660156 9.88417969,4.640625 8.99296875,4.640625 Z" id="Shape"></path>
                            <path d="M12.3082031,12.375 C12.009375,12.375 11.7439453,12.1640625 11.6876953,11.8599609 C11.4416016,10.5697266 10.3095703,9.6328125 8.99296875,9.6328125 C7.67636719,9.6328125 6.5443398,10.5697266 6.29824219,11.8599609 C6.24023437,12.1640625 5.97480469,12.375 5.67773437,12.375 C5.6390625,12.375 5.59863281,12.3714844 5.55996094,12.3644531 C5.2171875,12.2994141 4.99042969,11.9689453 5.05546875,11.6244141 C5.41230469,9.73652344 7.06816406,8.3671875 8.99296875,8.3671875 C10.9160156,8.3671875 12.5736328,9.73652344 12.9304687,11.6244141 C12.9955078,11.9671875 12.7705078,12.2994141 12.4259766,12.3644531 C12.3873047,12.3714844 12.346875,12.375 12.3082031,12.375 L12.3082031,12.375 Z" id="Shape"></path>
                        </g>
                    </g>
                </g>
            </g>
        </g>
    </g>
</svg>