<?xml version="1.0" encoding="UTF-8"?>
<svg width="16px" height="16px" viewBox="0 0 16 16" version="1.1" xmlns="http://www.w3.org/2000/svg" xmlns:xlink="http://www.w3.org/1999/xlink">
    <!-- Generator: Sketch 58 (84663) - https://sketch.com -->
    <title>icon-工作看板</title>
    <desc>Created with Sketch.</desc>
    <g id="页面-1" stroke="none" stroke-width="1" fill="none" fill-rule="evenodd">
        <g id="工作看板1" transform="translate(-21.000000, -86.000000)">
            <g id="leftbar">
                <g id="工作看板" transform="translate(0.000000, 64.400000)">
                    <g id="icon-工作看板" transform="translate(20.000000, 20.600000)">
                        <rect id="Rectangle-31" x="0" y="0" width="18" height="18"></rect>
                        <g id="appstore-o" transform="translate(1.125000, 1.125000)" fill="#FFFFFF" fill-rule="nonzero">
                            <path d="M5.87109375,1.265625 L5.87109375,5.87109375 L1.265625,5.87109375 L1.265625,1.265625 L5.87109375,1.265625 L5.87109375,1.265625 Z M5.87109375,0 L1.265625,0 C0.566015625,0 0,0.566015625 0,1.265625 L0,5.87109375 C0,6.57070313 0.566015625,7.13671875 1.265625,7.13671875 L5.87109375,7.13671875 C6.57070313,7.13671875 7.13671875,6.57070313 7.13671875,5.87109375 L7.13671875,1.265625 C7.13671875,0.566015625 6.57070313,0 5.87109375,0 Z M14.484375,1.265625 L14.484375,5.87109375 L9.87890625,5.87109375 L9.87890625,1.265625 L14.484375,1.265625 L14.484375,1.265625 Z M14.484375,0 L9.87890625,0 C9.17929688,0 8.61328125,0.566015625 8.61328125,1.265625 L8.61328125,5.87109375 C8.61328125,6.57070313 9.17929688,7.13671875 9.87890625,7.13671875 L14.484375,7.13671875 C15.1839844,7.13671875 15.75,6.57070313 15.75,5.87109375 L15.75,1.265625 C15.75,0.566015625 15.1839844,0 14.484375,0 Z M5.87109375,9.87890625 L5.87109375,14.484375 L1.265625,14.484375 L1.265625,9.87890625 L5.87109375,9.87890625 L5.87109375,9.87890625 Z M5.87109375,8.61328125 L1.265625,8.61328125 C0.566015625,8.61328125 0,9.17929688 0,9.87890625 L0,14.484375 C0,15.1839844 0.566015625,15.75 1.265625,15.75 L5.87109375,15.75 C6.57070313,15.75 7.13671875,15.1839844 7.13671875,14.484375 L7.13671875,9.87890625 C7.13671875,9.17929688 6.57070313,8.61328125 5.87109375,8.61328125 Z M14.484375,9.87890625 L14.484375,14.484375 L9.87890625,14.484375 L9.87890625,9.87890625 L14.484375,9.87890625 L14.484375,9.87890625 Z M14.484375,8.61328125 L9.87890625,8.61328125 C9.17929688,8.61328125 8.61328125,9.17929688 8.61328125,9.87890625 L8.61328125,14.484375 C8.61328125,15.1839844 9.17929688,15.75 9.87890625,15.75 L14.484375,15.75 C15.1839844,15.75 15.75,15.1839844 15.75,14.484375 L15.75,9.87890625 C15.75,9.17929688 15.1839844,8.61328125 14.484375,8.61328125 Z" id="Shape"></path>
                        </g>
                    </g>
                </g>
            </g>
        </g>
    </g>
</svg>